<svg width="441" height="191" viewBox="0 0 441 191" fill="none" xmlns="http://www.w3.org/2000/svg">
<path d="M99.6387 60.7695L119.854 0.90625H127.227L128.057 10.916L106.719 72H98.6621L99.6387 60.7695ZM105.205 0.90625L104.668 62.1367L101.689 72H92.9004L91.6309 0.90625H105.205ZM128.154 60.623L146.27 0.90625H160.234L136.846 72H127.959L128.154 60.623ZM131.523 0.90625L133.184 62.2832L130.791 72H122.881L120.684 9.54883L124.15 0.90625H131.523ZM168.389 0.90625L189.873 0.955078C194.137 1.08529 197.718 2.01302 200.615 3.73828C203.545 5.43099 205.71 7.83984 207.109 10.9648C208.542 14.0573 209.079 17.7357 208.721 22C208.428 25.5482 207.663 28.6569 206.426 31.3262C205.221 33.9629 203.529 36.2741 201.348 38.2598C199.167 40.2129 196.497 41.9219 193.34 43.3867L188.604 45.9258H169.951L172.002 34.0605L183.818 34.1582C185.999 34.1257 187.855 33.6211 189.385 32.6445C190.915 31.668 192.119 30.3496 192.998 28.6895C193.91 27.0293 194.495 25.1901 194.756 23.1719C194.951 21.6419 194.967 20.0957 194.805 18.5332C194.674 16.9707 194.186 15.6523 193.34 14.5781C192.493 13.5039 191.143 12.918 189.287 12.8203L180.352 12.7715L170.098 72H156.133L168.389 0.90625ZM187.725 72L180.547 40.3105L194.609 40.2617L202.617 71.2188V72H187.725ZM236.602 0.90625L224.248 72H210.332L222.686 0.90625H236.602ZM274.395 0.90625L262.041 72H248.125L260.479 0.90625H274.395ZM291.484 0.90625L289.434 12.7715H241.631L243.682 0.90625H291.484ZM328.838 60.1836L326.738 72H296.758L298.76 60.1836H328.838ZM313.408 0.90625L301.104 72H287.139L299.395 0.90625H313.408ZM330.107 29.7148L328.105 41.1895H302.08L304.033 29.7148H330.107ZM338.994 0.90625L336.895 12.7715H306.963L309.062 0.90625H338.994ZM19.5117 117.906H30.8887L35.1855 169.225L57.1094 117.906H69.2676L36.8457 189H27.3242L19.5117 117.906ZM12.9688 117.906H24.6875L17.9492 170.25L14.6289 189H0.712891L12.9688 117.906ZM63.6523 117.906H75.4199L63.1152 189H49.1504L52.666 168.98L63.6523 117.906ZM115.947 177.184L113.848 189H83.8672L85.8691 177.184H115.947ZM100.518 117.906L88.2129 189H74.248L86.5039 117.906H100.518ZM117.217 146.715L115.215 158.189H89.1895L91.1426 146.715H117.217ZM126.104 117.906L124.004 129.771H94.0723L96.1719 117.906H126.104ZM154.473 169.908C154.668 168.443 154.619 167.174 154.326 166.1C154.066 165.025 153.577 164.081 152.861 163.268C152.178 162.421 151.331 161.673 150.322 161.021C149.313 160.338 148.174 159.703 146.904 159.117C144.561 157.978 142.38 156.725 140.361 155.357C138.343 153.99 136.553 152.444 134.99 150.719C133.46 148.993 132.305 147.024 131.523 144.811C130.742 142.564 130.449 140.042 130.645 137.242C130.872 134.052 131.686 131.188 133.086 128.648C134.486 126.109 136.309 123.961 138.555 122.203C140.801 120.413 143.324 119.078 146.123 118.199C148.923 117.288 151.852 116.865 154.912 116.93C159.209 117.027 162.79 118.069 165.654 120.055C168.551 122.008 170.7 124.628 172.1 127.916C173.532 131.171 174.183 134.833 174.053 138.902L160.137 138.854C160.234 137.291 160.137 135.712 159.844 134.117C159.583 132.522 158.965 131.22 157.988 130.211C157.044 129.169 155.596 128.632 153.643 128.6C151.917 128.6 150.404 128.99 149.102 129.771C147.799 130.52 146.742 131.546 145.928 132.848C145.114 134.15 144.593 135.615 144.365 137.242C144.202 138.512 144.333 139.651 144.756 140.66C145.212 141.669 145.83 142.581 146.611 143.395C147.425 144.176 148.337 144.892 149.346 145.543C150.355 146.194 151.364 146.731 152.373 147.154C154.814 148.359 157.061 149.661 159.111 151.061C161.195 152.428 162.952 154.007 164.385 155.797C165.85 157.555 166.908 159.589 167.559 161.9C168.242 164.212 168.486 166.848 168.291 169.811C168.031 173.098 167.233 175.995 165.898 178.502C164.596 181.008 162.871 183.141 160.723 184.898C158.574 186.624 156.117 187.926 153.35 188.805C150.583 189.684 147.62 190.09 144.463 190.025C141.077 189.928 138.05 189.293 135.381 188.121C132.712 186.917 130.465 185.273 128.643 183.189C126.852 181.074 125.518 178.6 124.639 175.768C123.76 172.903 123.418 169.827 123.613 166.539L137.529 166.588C137.432 168.118 137.448 169.599 137.578 171.031C137.708 172.464 138.066 173.717 138.652 174.791C139.238 175.865 140.085 176.728 141.191 177.379C142.298 178.03 143.763 178.355 145.586 178.355C147.311 178.355 148.792 177.997 150.029 177.281C151.266 176.533 152.259 175.523 153.008 174.254C153.757 172.984 154.245 171.536 154.473 169.908ZM206.816 169.908C207.012 168.443 206.963 167.174 206.67 166.1C206.41 165.025 205.921 164.081 205.205 163.268C204.521 162.421 203.675 161.673 202.666 161.021C201.657 160.338 200.518 159.703 199.248 159.117C196.904 157.978 194.723 156.725 192.705 155.357C190.687 153.99 188.896 152.444 187.334 150.719C185.804 148.993 184.648 147.024 183.867 144.811C183.086 142.564 182.793 140.042 182.988 137.242C183.216 134.052 184.03 131.188 185.43 128.648C186.829 126.109 188.652 123.961 190.898 122.203C193.145 120.413 195.667 119.078 198.467 118.199C201.266 117.288 204.196 116.865 207.256 116.93C211.553 117.027 215.133 118.069 217.998 120.055C220.895 122.008 223.044 124.628 224.443 127.916C225.876 131.171 226.527 134.833 226.396 138.902L212.48 138.854C212.578 137.291 212.48 135.712 212.188 134.117C211.927 132.522 211.309 131.22 210.332 130.211C209.388 129.169 207.939 128.632 205.986 128.6C204.261 128.6 202.747 128.99 201.445 129.771C200.143 130.52 199.085 131.546 198.271 132.848C197.458 134.15 196.937 135.615 196.709 137.242C196.546 138.512 196.676 139.651 197.1 140.66C197.555 141.669 198.174 142.581 198.955 143.395C199.769 144.176 200.68 144.892 201.689 145.543C202.699 146.194 203.708 146.731 204.717 147.154C207.158 148.359 209.404 149.661 211.455 151.061C213.538 152.428 215.296 154.007 216.729 155.797C218.193 157.555 219.251 159.589 219.902 161.9C220.586 164.212 220.83 166.848 220.635 169.811C220.374 173.098 219.577 175.995 218.242 178.502C216.94 181.008 215.215 183.141 213.066 184.898C210.918 186.624 208.46 187.926 205.693 188.805C202.926 189.684 199.964 190.09 196.807 190.025C193.421 189.928 190.394 189.293 187.725 188.121C185.055 186.917 182.809 185.273 180.986 183.189C179.196 181.074 177.861 178.6 176.982 175.768C176.104 172.903 175.762 169.827 175.957 166.539L189.873 166.588C189.775 168.118 189.792 169.599 189.922 171.031C190.052 172.464 190.41 173.717 190.996 174.791C191.582 175.865 192.428 176.728 193.535 177.379C194.642 178.03 196.107 178.355 197.93 178.355C199.655 178.355 201.136 177.997 202.373 177.281C203.61 176.533 204.603 175.523 205.352 174.254C206.1 172.984 206.589 171.536 206.816 169.908ZM261.65 131.285L236.992 189H221.855L255.742 117.906H265.264L261.65 131.285ZM263.457 189L258.574 130.113L259.355 117.906H268.389L277.812 189H263.457ZM268.486 162.486L266.387 174.352H235.137L237.236 162.486H268.486ZM336.699 151.646L332.256 180.943C330.303 183.124 328.008 184.882 325.371 186.217C322.734 187.551 319.951 188.512 317.021 189.098C314.092 189.716 311.211 190.009 308.379 189.977C304.017 189.911 300.387 189.016 297.49 187.291C294.593 185.566 292.331 183.271 290.703 180.406C289.108 177.509 288.066 174.27 287.578 170.689C287.122 167.109 287.139 163.382 287.627 159.508L289.482 147.398C290.068 143.395 291.061 139.553 292.461 135.875C293.861 132.197 295.716 128.909 298.027 126.012C300.339 123.115 303.171 120.852 306.523 119.225C309.909 117.564 313.864 116.783 318.389 116.881C323.337 117.011 327.292 118.069 330.254 120.055C333.216 122.008 335.381 124.758 336.748 128.307C338.115 131.822 338.831 135.891 338.896 140.514H325.371C325.404 138.495 325.257 136.607 324.932 134.85C324.606 133.059 323.906 131.611 322.832 130.504C321.758 129.365 320.033 128.746 317.656 128.648C315.085 128.551 312.936 129.072 311.211 130.211C309.518 131.35 308.135 132.848 307.061 134.703C305.986 136.559 305.156 138.609 304.57 140.855C304.017 143.069 303.626 145.217 303.398 147.301L301.641 159.557C301.413 161.412 301.234 163.398 301.104 165.514C301.006 167.63 301.169 169.648 301.592 171.568C302.048 173.456 302.91 175.019 304.18 176.256C305.449 177.46 307.337 178.079 309.844 178.111C310.983 178.111 312.025 178.014 312.969 177.818C313.945 177.59 314.873 177.281 315.752 176.891C316.663 176.467 317.575 176.012 318.486 175.523L321.074 162.438H311.113L313.018 151.646H336.699ZM381.963 177.184L379.863 189H349.883L351.885 177.184H381.963ZM366.533 117.906L354.229 189H340.264L352.52 117.906H366.533ZM383.232 146.715L381.23 158.189H355.205L357.158 146.715H383.232ZM392.119 117.906L390.02 129.771H360.088L362.188 117.906H392.119ZM420.488 169.908C420.684 168.443 420.635 167.174 420.342 166.1C420.081 165.025 419.593 164.081 418.877 163.268C418.193 162.421 417.347 161.673 416.338 161.021C415.329 160.338 414.189 159.703 412.92 159.117C410.576 157.978 408.395 156.725 406.377 155.357C404.359 153.99 402.568 152.444 401.006 150.719C399.476 148.993 398.32 147.024 397.539 144.811C396.758 142.564 396.465 140.042 396.66 137.242C396.888 134.052 397.702 131.188 399.102 128.648C400.501 126.109 402.324 123.961 404.57 122.203C406.816 120.413 409.339 119.078 412.139 118.199C414.938 117.288 417.868 116.865 420.928 116.93C425.225 117.027 428.805 118.069 431.67 120.055C434.567 122.008 436.715 124.628 438.115 127.916C439.548 131.171 440.199 134.833 440.068 138.902L426.152 138.854C426.25 137.291 426.152 135.712 425.859 134.117C425.599 132.522 424.98 131.22 424.004 130.211C423.06 129.169 421.611 128.632 419.658 128.6C417.933 128.6 416.419 128.99 415.117 129.771C413.815 130.52 412.757 131.546 411.943 132.848C411.13 134.15 410.609 135.615 410.381 137.242C410.218 138.512 410.348 139.651 410.771 140.66C411.227 141.669 411.846 142.581 412.627 143.395C413.441 144.176 414.352 144.892 415.361 145.543C416.37 146.194 417.38 146.731 418.389 147.154C420.83 148.359 423.076 149.661 425.127 151.061C427.21 152.428 428.968 154.007 430.4 155.797C431.865 157.555 432.923 159.589 433.574 161.9C434.258 164.212 434.502 166.848 434.307 169.811C434.046 173.098 433.249 175.995 431.914 178.502C430.612 181.008 428.887 183.141 426.738 184.898C424.59 186.624 422.132 187.926 419.365 188.805C416.598 189.684 413.636 190.09 410.479 190.025C407.093 189.928 404.066 189.293 401.396 188.121C398.727 186.917 396.481 185.273 394.658 183.189C392.868 181.074 391.533 178.6 390.654 175.768C389.775 172.903 389.434 169.827 389.629 166.539L403.545 166.588C403.447 168.118 403.464 169.599 403.594 171.031C403.724 172.464 404.082 173.717 404.668 174.791C405.254 175.865 406.1 176.728 407.207 177.379C408.314 178.03 409.779 178.355 411.602 178.355C413.327 178.355 414.808 177.997 416.045 177.281C417.282 176.533 418.275 175.523 419.023 174.254C419.772 172.984 420.26 171.536 420.488 169.908Z" fill="#3B82F6"/>
</svg>
