<svg width="618" height="192" viewBox="0 0 618 192" fill="none" xmlns="http://www.w3.org/2000/svg">
<path d="M214.955 1.90625L202.602 73H188.979L176.479 25.6367L168.275 73H154.311L166.566 1.90625H180.238L192.836 49.3184L201.039 1.90625H214.955ZM269.154 31.9355L267.396 43.7031C266.778 47.707 265.753 51.5645 264.32 55.2754C262.888 58.9538 260.984 62.209 258.607 65.041C256.231 67.873 253.35 70.1029 249.965 71.7305C246.579 73.3255 242.657 74.0742 238.197 73.9766C233.933 73.8789 230.368 72.9674 227.504 71.2422C224.672 69.5169 222.458 67.222 220.863 64.3574C219.268 61.4928 218.227 58.2865 217.738 54.7383C217.283 51.1576 217.283 47.5117 217.738 43.8008L219.496 31.9844C220.115 27.9479 221.14 24.0742 222.572 20.3633C224.005 16.6198 225.909 13.2669 228.285 10.3047C230.694 7.34245 233.607 5.01497 237.025 3.32227C240.443 1.59701 244.415 0.799479 248.939 0.929688C253.269 1.02734 256.85 1.98763 259.682 3.81055C262.514 5.63346 264.711 8.04232 266.273 11.0371C267.836 13.9993 268.829 17.3034 269.252 20.9492C269.675 24.5625 269.643 28.2246 269.154 31.9355ZM253.578 43.8008L255.287 31.7402C255.515 30.0801 255.678 28.2083 255.775 26.125C255.906 24.0091 255.792 21.9583 255.434 19.9727C255.076 17.9544 254.327 16.278 253.188 14.9434C252.048 13.6087 250.29 12.8926 247.914 12.7949C245.31 12.6647 243.129 13.1855 241.371 14.3574C239.646 15.5293 238.246 17.1081 237.172 19.0938C236.098 21.0469 235.268 23.1465 234.682 25.3926C234.128 27.6387 233.689 29.7871 233.363 31.8379L231.703 43.8496C231.475 45.5423 231.312 47.4141 231.215 49.4648C231.117 51.5156 231.264 53.5013 231.654 55.4219C232.077 57.3099 232.859 58.8887 233.998 60.1582C235.17 61.3952 236.944 62.0625 239.32 62.1602C241.827 62.2904 243.926 61.8021 245.619 60.6953C247.312 59.556 248.695 58.0586 249.77 56.2031C250.844 54.3477 251.674 52.3294 252.26 50.1484C252.846 47.9349 253.285 45.819 253.578 43.8008ZM308.07 1.90625L295.717 73H281.801L294.154 1.90625H308.07ZM325.16 1.90625L323.109 13.7715H275.307L277.357 1.90625H325.16ZM347.621 1.90625L335.268 73H321.352L333.705 1.90625H347.621ZM373.256 1.90625L360.951 73H346.986L359.242 1.90625H373.256ZM389.662 32.1309L387.562 43.9473H362.367L364.467 32.1309H389.662ZM397.523 1.90625L395.424 13.7715H367.641L369.691 1.90625H397.523ZM415.59 1.90625L420.521 33.791L436.439 1.90625H452.162L425.307 47.8535L420.961 73H406.85L411.488 46.4375L400.941 1.90625H415.59ZM40.2969 132.285L15.6387 190H0.501953L34.3887 118.906H43.9102L40.2969 132.285ZM42.1035 190L37.2207 131.113L38.002 118.906H47.0352L56.459 190H42.1035ZM47.1328 163.486L45.0332 175.352H13.7832L15.8828 163.486H47.1328ZM92.3965 158.994H77.6504L79.457 148.643L90.8828 148.74C92.8034 148.708 94.4961 148.333 95.9609 147.617C97.4258 146.868 98.5977 145.811 99.4766 144.443C100.355 143.076 100.925 141.432 101.186 139.512C101.413 137.852 101.413 136.403 101.186 135.166C100.99 133.896 100.421 132.887 99.4766 132.139C98.5651 131.357 97.2142 130.918 95.4238 130.82L87.3672 130.771L77.1133 190H63.1484L75.4043 118.906L96.0098 118.955C99.0046 119.02 101.739 119.46 104.213 120.273C106.687 121.055 108.786 122.243 110.512 123.838C112.27 125.4 113.588 127.37 114.467 129.746C115.346 132.09 115.671 134.84 115.443 137.998C115.183 141.611 114.206 144.655 112.514 147.129C110.854 149.57 108.656 151.475 105.922 152.842C103.188 154.209 100.079 154.99 96.5957 155.186L92.3965 158.994ZM86.6836 190H68.1289L75.5996 178.232L87.3672 178.281C89.2878 178.216 90.9316 177.76 92.2988 176.914C93.6986 176.068 94.8053 174.928 95.6191 173.496C96.4655 172.064 97.0189 170.404 97.2793 168.516C97.4746 167.148 97.5234 165.765 97.4258 164.365C97.3281 162.933 96.9212 161.729 96.2051 160.752C95.4889 159.743 94.252 159.173 92.4941 159.043L79.8965 158.994L81.8008 148.643L95.9121 148.691L98.3047 152.744C101.397 152.842 103.904 153.607 105.824 155.039C107.777 156.471 109.177 158.376 110.023 160.752C110.87 163.096 111.179 165.749 110.951 168.711C110.658 173.333 109.438 177.24 107.289 180.43C105.173 183.587 102.341 185.996 98.793 187.656C95.2448 189.284 91.2083 190.065 86.6836 190ZM173.109 148.936L171.352 160.703C170.733 164.707 169.708 168.564 168.275 172.275C166.843 175.954 164.939 179.209 162.562 182.041C160.186 184.873 157.305 187.103 153.92 188.73C150.535 190.326 146.612 191.074 142.152 190.977C137.888 190.879 134.324 189.967 131.459 188.242C128.627 186.517 126.413 184.222 124.818 181.357C123.223 178.493 122.182 175.286 121.693 171.738C121.238 168.158 121.238 164.512 121.693 160.801L123.451 148.984C124.07 144.948 125.095 141.074 126.527 137.363C127.96 133.62 129.864 130.267 132.24 127.305C134.649 124.342 137.562 122.015 140.98 120.322C144.398 118.597 148.37 117.799 152.895 117.93C157.224 118.027 160.805 118.988 163.637 120.811C166.469 122.633 168.666 125.042 170.229 128.037C171.791 130.999 172.784 134.303 173.207 137.949C173.63 141.562 173.598 145.225 173.109 148.936ZM157.533 160.801L159.242 148.74C159.47 147.08 159.633 145.208 159.73 143.125C159.861 141.009 159.747 138.958 159.389 136.973C159.031 134.954 158.282 133.278 157.143 131.943C156.003 130.609 154.245 129.893 151.869 129.795C149.265 129.665 147.084 130.186 145.326 131.357C143.601 132.529 142.201 134.108 141.127 136.094C140.053 138.047 139.223 140.146 138.637 142.393C138.083 144.639 137.644 146.787 137.318 148.838L135.658 160.85C135.43 162.542 135.268 164.414 135.17 166.465C135.072 168.516 135.219 170.501 135.609 172.422C136.033 174.31 136.814 175.889 137.953 177.158C139.125 178.395 140.899 179.062 143.275 179.16C145.782 179.29 147.882 178.802 149.574 177.695C151.267 176.556 152.65 175.059 153.725 173.203C154.799 171.348 155.629 169.329 156.215 167.148C156.801 164.935 157.24 162.819 157.533 160.801ZM219.545 118.906H233.461L225.16 167.686C224.509 172.471 223.077 176.637 220.863 180.186C218.682 183.701 215.769 186.403 212.123 188.291C208.477 190.179 204.18 191.09 199.232 191.025C194.545 190.928 190.655 189.902 187.562 187.949C184.47 185.964 182.257 183.245 180.922 179.795C179.62 176.312 179.229 172.292 179.75 167.734L188.051 118.906H201.918L193.764 167.783C193.536 169.736 193.503 171.576 193.666 173.301C193.829 174.993 194.415 176.377 195.424 177.451C196.433 178.493 198.093 179.062 200.404 179.16C202.846 179.258 204.799 178.818 206.264 177.842C207.761 176.865 208.884 175.498 209.633 173.74C210.414 171.95 210.984 169.964 211.342 167.783L219.545 118.906ZM271.596 118.906L259.242 190H245.326L257.68 118.906H271.596ZM288.686 118.906L286.635 130.771H238.832L240.883 118.906H288.686ZM345.961 178.184L343.861 190H313.881L315.883 178.184H345.961ZM330.531 118.906L318.227 190H304.262L316.518 118.906H330.531ZM347.23 147.715L345.229 159.189H319.203L321.156 147.715H347.23ZM356.117 118.906L354.018 130.771H324.086L326.186 118.906H356.117ZM376.283 174.18L397.475 118.906H413.295L382.143 190H371.791L376.283 174.18ZM374.184 118.906L378.09 175.4L377.846 190H367.836L359.145 118.906H374.184ZM449.672 178.184L447.572 190H417.592L419.594 178.184H449.672ZM434.242 118.906L421.938 190H407.973L420.229 118.906H434.242ZM450.941 147.715L448.939 159.189H422.914L424.867 147.715H450.941ZM459.828 118.906L457.729 130.771H427.797L429.896 118.906H459.828ZM516.273 118.906L503.92 190H490.297L477.797 142.637L469.594 190H455.629L467.885 118.906H481.557L494.154 166.318L502.357 118.906H516.273ZM553.432 118.906L541.078 190H527.162L539.516 118.906H553.432ZM570.521 118.906L568.471 130.771H520.668L522.719 118.906H570.521ZM597.963 170.908C598.158 169.443 598.109 168.174 597.816 167.1C597.556 166.025 597.068 165.081 596.352 164.268C595.668 163.421 594.822 162.673 593.812 162.021C592.803 161.338 591.664 160.703 590.395 160.117C588.051 158.978 585.87 157.725 583.852 156.357C581.833 154.99 580.043 153.444 578.48 151.719C576.951 149.993 575.795 148.024 575.014 145.811C574.232 143.564 573.939 141.042 574.135 138.242C574.363 135.052 575.176 132.188 576.576 129.648C577.976 127.109 579.799 124.961 582.045 123.203C584.291 121.413 586.814 120.078 589.613 119.199C592.413 118.288 595.342 117.865 598.402 117.93C602.699 118.027 606.28 119.069 609.145 121.055C612.042 123.008 614.19 125.628 615.59 128.916C617.022 132.171 617.673 135.833 617.543 139.902L603.627 139.854C603.725 138.291 603.627 136.712 603.334 135.117C603.074 133.522 602.455 132.22 601.479 131.211C600.535 130.169 599.086 129.632 597.133 129.6C595.408 129.6 593.894 129.99 592.592 130.771C591.29 131.52 590.232 132.546 589.418 133.848C588.604 135.15 588.083 136.615 587.855 138.242C587.693 139.512 587.823 140.651 588.246 141.66C588.702 142.669 589.32 143.581 590.102 144.395C590.915 145.176 591.827 145.892 592.836 146.543C593.845 147.194 594.854 147.731 595.863 148.154C598.305 149.359 600.551 150.661 602.602 152.061C604.685 153.428 606.443 155.007 607.875 156.797C609.34 158.555 610.398 160.589 611.049 162.9C611.732 165.212 611.977 167.848 611.781 170.811C611.521 174.098 610.723 176.995 609.389 179.502C608.087 182.008 606.361 184.141 604.213 185.898C602.064 187.624 599.607 188.926 596.84 189.805C594.073 190.684 591.111 191.09 587.953 191.025C584.568 190.928 581.54 190.293 578.871 189.121C576.202 187.917 573.956 186.273 572.133 184.189C570.342 182.074 569.008 179.6 568.129 176.768C567.25 173.903 566.908 170.827 567.104 167.539L581.02 167.588C580.922 169.118 580.938 170.599 581.068 172.031C581.199 173.464 581.557 174.717 582.143 175.791C582.729 176.865 583.575 177.728 584.682 178.379C585.788 179.03 587.253 179.355 589.076 179.355C590.801 179.355 592.283 178.997 593.52 178.281C594.757 177.533 595.749 176.523 596.498 175.254C597.247 173.984 597.735 172.536 597.963 170.908Z" fill="#3B82F6"/>
</svg>
