<svg width="1454" height="203" viewBox="0 0 1454 203" fill="none" xmlns="http://www.w3.org/2000/svg">
<path d="M33.9727 49.3672L47.4004 49.1719C46.8796 54.1198 45.4961 58.4818 43.25 62.2578C41.0365 66.0339 38.0254 68.9635 34.2168 71.0469C30.4408 73.1302 25.9811 74.1068 20.8379 73.9766C16.541 73.8789 13.0091 72.9512 10.2422 71.1934C7.47526 69.403 5.3431 67.0592 3.8457 64.1621C2.34831 61.2324 1.42057 57.9935 1.0625 54.4453C0.704427 50.8646 0.753255 47.2188 1.20898 43.5078L3.06445 31.4473C3.65039 27.5085 4.64323 23.6999 6.04297 20.0215C7.44271 16.3105 9.29818 13.0065 11.6094 10.1094C13.9206 7.17969 16.7526 4.88477 20.1055 3.22461C23.4909 1.56445 27.3971 0.783203 31.8242 0.880859C36.9349 0.978516 40.9714 2.16667 43.9336 4.44531C46.9284 6.69141 49.0768 9.70247 50.3789 13.4785C51.681 17.2546 52.3483 21.4375 52.3809 26.0273L38.416 25.9785C38.5462 23.765 38.5137 21.6654 38.3184 19.6797C38.123 17.6615 37.472 16.0176 36.3652 14.748C35.291 13.446 33.4193 12.7461 30.75 12.6484C28.1458 12.5508 25.9974 13.0716 24.3047 14.2109C22.6445 15.3503 21.3099 16.8639 20.3008 18.752C19.3242 20.64 18.5755 22.6908 18.0547 24.9043C17.5664 27.1178 17.1758 29.2663 16.8828 31.3496L15.1738 43.5566C14.946 45.2493 14.7344 47.1374 14.5391 49.2207C14.3763 51.304 14.4251 53.3223 14.6855 55.2754C14.946 57.2285 15.6133 58.8561 16.6875 60.1582C17.7617 61.4603 19.5033 62.1764 21.9121 62.3066C24.7441 62.4043 26.9577 61.8835 28.5527 60.7441C30.1478 59.6048 31.3359 58.0423 32.1172 56.0566C32.931 54.0384 33.5495 51.8086 33.9727 49.3672ZM64.7832 1.90625L86.2676 1.95508C90.5319 2.08529 94.1126 3.01302 97.0098 4.73828C99.9395 6.43099 102.104 8.83984 103.504 11.9648C104.936 15.0573 105.473 18.7357 105.115 23C104.822 26.5482 104.057 29.6569 102.82 32.3262C101.616 34.9629 99.9232 37.2741 97.7422 39.2598C95.5612 41.2129 92.8919 42.9219 89.7344 44.3867L84.998 46.9258H66.3457L68.3965 35.0605L80.2129 35.1582C82.3939 35.1257 84.2493 34.6211 85.7793 33.6445C87.3092 32.668 88.5137 31.3496 89.3926 29.6895C90.304 28.0293 90.89 26.1901 91.1504 24.1719C91.3457 22.6419 91.362 21.0957 91.1992 19.5332C91.069 17.9707 90.5807 16.6523 89.7344 15.5781C88.888 14.5039 87.5371 13.918 85.6816 13.8203L76.7461 13.7715L66.4922 73H52.5273L64.7832 1.90625ZM84.1191 73L76.9414 41.3105L91.0039 41.2617L99.0117 72.2188V73H84.1191ZM147.889 61.1836L145.789 73H115.809L117.811 61.1836H147.889ZM132.459 1.90625L120.154 73H106.189L118.445 1.90625H132.459ZM149.158 30.7148L147.156 42.1895H121.131L123.084 30.7148H149.158ZM158.045 1.90625L155.945 13.7715H126.014L128.113 1.90625H158.045ZM188.904 15.2852L164.246 73H149.109L182.996 1.90625H192.518L188.904 15.2852ZM190.711 73L185.828 14.1133L186.609 1.90625H195.643L205.066 73H190.711ZM195.74 46.4863L193.641 58.3516H162.391L164.49 46.4863H195.74ZM245.789 1.90625L233.436 73H219.52L231.873 1.90625H245.789ZM262.879 1.90625L260.828 13.7715H213.025L215.076 1.90625H262.879ZM300.232 61.1836L298.133 73H268.152L270.154 61.1836H300.232ZM284.803 1.90625L272.498 73H258.533L270.789 1.90625H284.803ZM301.502 30.7148L299.5 42.1895H273.475L275.428 30.7148H301.502ZM310.389 1.90625L308.289 13.7715H278.357L280.457 1.90625H310.389ZM362.586 62.1602L376.941 78.0293L367.42 85.7441L353.455 69.9238L362.586 62.1602ZM384.51 31.9355L382.801 42.9219C382.215 46.9258 381.206 50.8158 379.773 54.5918C378.341 58.3353 376.421 61.6882 374.012 64.6504C371.635 67.5801 368.755 69.8913 365.369 71.584C361.984 73.2767 358.012 74.0742 353.455 73.9766C349.126 73.8789 345.545 72.9349 342.713 71.1445C339.881 69.3216 337.667 66.929 336.072 63.9668C334.51 60.972 333.501 57.668 333.045 54.0547C332.622 50.4089 332.638 46.7142 333.094 42.9707L334.754 31.9355C335.372 27.9316 336.398 24.0742 337.83 20.3633C339.295 16.6198 341.215 13.2669 343.592 10.3047C346.001 7.34245 348.914 5.01497 352.332 3.32227C355.75 1.59701 359.705 0.799479 364.197 0.929688C368.527 0.994792 372.107 1.9388 374.939 3.76172C377.771 5.58464 379.969 7.99349 381.531 10.9883C383.126 13.9505 384.135 17.2546 384.559 20.9004C384.982 24.5462 384.965 28.2246 384.51 31.9355ZM369.031 42.9707L370.643 31.7402C370.838 30.0801 371.001 28.2083 371.131 26.125C371.261 24.0091 371.131 21.9583 370.74 19.9727C370.382 17.9544 369.617 16.278 368.445 14.9434C367.306 13.6087 365.564 12.8926 363.221 12.7949C360.584 12.6647 358.387 13.1855 356.629 14.3574C354.904 15.5293 353.504 17.1081 352.43 19.0938C351.388 21.0469 350.558 23.1465 349.939 25.3926C349.354 27.6387 348.914 29.7871 348.621 31.8379L347.059 43.0195C346.831 44.7122 346.652 46.6328 346.521 48.7812C346.424 50.8971 346.554 52.9642 346.912 54.9824C347.27 56.9681 348.019 58.6445 349.158 60.0117C350.33 61.3464 352.12 62.0625 354.529 62.1602C357.133 62.2904 359.298 61.7695 361.023 60.5977C362.749 59.3932 364.132 57.8145 365.174 55.8613C366.248 53.8757 367.078 51.7598 367.664 49.5137C368.283 47.235 368.738 45.054 369.031 42.9707ZM430.945 1.90625H444.861L436.561 50.6855C435.91 55.4707 434.477 59.6374 432.264 63.1855C430.083 66.7012 427.169 69.403 423.523 71.291C419.878 73.179 415.581 74.0905 410.633 74.0254C405.945 73.9277 402.055 72.9023 398.963 70.9492C395.87 68.9635 393.657 66.2454 392.322 62.7949C391.02 59.3118 390.63 55.2917 391.15 50.7344L399.451 1.90625H413.318L405.164 50.7832C404.936 52.7363 404.904 54.5755 405.066 56.3008C405.229 57.9935 405.815 59.377 406.824 60.4512C407.833 61.4928 409.493 62.0625 411.805 62.1602C414.246 62.2578 416.199 61.8184 417.664 60.8418C419.161 59.8652 420.285 58.498 421.033 56.7402C421.814 54.9499 422.384 52.9642 422.742 50.7832L430.945 1.90625ZM484.803 61.1836L482.703 73H452.723L454.725 61.1836H484.803ZM469.373 1.90625L457.068 73H443.104L455.359 1.90625H469.373ZM486.072 30.7148L484.07 42.1895H458.045L459.998 30.7148H486.072ZM494.959 1.90625L492.859 13.7715H462.928L465.027 1.90625H494.959ZM534.07 1.90625H547.986L539.686 50.6855C539.035 55.4707 537.602 59.6374 535.389 63.1855C533.208 66.7012 530.294 69.403 526.648 71.291C523.003 73.179 518.706 74.0905 513.758 74.0254C509.07 73.9277 505.18 72.9023 502.088 70.9492C498.995 68.9635 496.782 66.2454 495.447 62.7949C494.145 59.3118 493.755 55.2917 494.275 50.7344L502.576 1.90625H516.443L508.289 50.7832C508.061 52.7363 508.029 54.5755 508.191 56.3008C508.354 57.9935 508.94 59.377 509.949 60.4512C510.958 61.4928 512.618 62.0625 514.93 62.1602C517.371 62.2578 519.324 61.8184 520.789 60.8418C522.286 59.8652 523.41 58.498 524.158 56.7402C524.939 54.9499 525.509 52.9642 525.867 50.7832L534.07 1.90625ZM587.928 61.1836L585.828 73H555.848L557.85 61.1836H587.928ZM572.498 1.90625L560.193 73H546.229L558.484 1.90625H572.498ZM589.197 30.7148L587.195 42.1895H561.17L563.123 30.7148H589.197ZM598.084 1.90625L595.984 13.7715H566.053L568.152 1.90625H598.084ZM626.453 53.9082C626.648 52.4434 626.6 51.1738 626.307 50.0996C626.046 49.0254 625.558 48.0814 624.842 47.2676C624.158 46.4212 623.312 45.6725 622.303 45.0215C621.294 44.3379 620.154 43.7031 618.885 43.1172C616.541 41.9779 614.36 40.7246 612.342 39.3574C610.324 37.9902 608.533 36.444 606.971 34.7188C605.441 32.9935 604.285 31.0241 603.504 28.8105C602.723 26.5645 602.43 24.0417 602.625 21.2422C602.853 18.0521 603.667 15.1875 605.066 12.6484C606.466 10.1094 608.289 7.96094 610.535 6.20312C612.781 4.41276 615.304 3.07812 618.104 2.19922C620.903 1.28776 623.833 0.864583 626.893 0.929688C631.189 1.02734 634.77 2.06901 637.635 4.05469C640.532 6.00781 642.68 8.62826 644.08 11.916C645.512 15.1712 646.163 18.8333 646.033 22.9023L632.117 22.8535C632.215 21.291 632.117 19.7122 631.824 18.1172C631.564 16.5221 630.945 15.2201 629.969 14.2109C629.025 13.1693 627.576 12.6322 625.623 12.5996C623.898 12.5996 622.384 12.9902 621.082 13.7715C619.78 14.5202 618.722 15.5456 617.908 16.8477C617.094 18.1497 616.574 19.6146 616.346 21.2422C616.183 22.5117 616.313 23.651 616.736 24.6602C617.192 25.6693 617.811 26.5807 618.592 27.3945C619.406 28.1758 620.317 28.8919 621.326 29.543C622.335 30.194 623.344 30.7311 624.354 31.1543C626.795 32.3587 629.041 33.6608 631.092 35.0605C633.175 36.4277 634.933 38.0065 636.365 39.7969C637.83 41.5547 638.888 43.5892 639.539 45.9004C640.223 48.2116 640.467 50.8483 640.271 53.8105C640.011 57.0983 639.214 59.9954 637.879 62.502C636.577 65.0085 634.852 67.1406 632.703 68.8984C630.555 70.6237 628.097 71.9258 625.33 72.8047C622.563 73.6836 619.601 74.0905 616.443 74.0254C613.058 73.9277 610.031 73.293 607.361 72.1211C604.692 70.9167 602.446 69.2728 600.623 67.1895C598.833 65.0736 597.498 62.5996 596.619 59.7676C595.74 56.903 595.398 53.8268 595.594 50.5391L609.51 50.5879C609.412 52.1178 609.428 53.599 609.559 55.0312C609.689 56.4635 610.047 57.7168 610.633 58.791C611.219 59.8652 612.065 60.7279 613.172 61.3789C614.279 62.0299 615.743 62.3555 617.566 62.3555C619.292 62.3555 620.773 61.9974 622.01 61.2812C623.247 60.5326 624.24 59.5234 624.988 58.2539C625.737 56.9844 626.225 55.5358 626.453 53.9082ZM695.887 1.90625L683.533 73H669.617L681.971 1.90625H695.887ZM755.896 1.90625L743.543 73H729.92L717.42 25.6367L709.217 73H695.252L707.508 1.90625H721.18L733.777 49.3184L741.98 1.90625H755.896ZM799.891 1.90625L804.822 33.791L820.74 1.90625H836.463L809.607 47.8535L805.262 73H791.15L795.789 46.4375L785.242 1.90625H799.891ZM884.119 31.9355L882.361 43.7031C881.743 47.707 880.717 51.5645 879.285 55.2754C877.853 58.9538 875.949 62.209 873.572 65.041C871.196 67.873 868.315 70.1029 864.93 71.7305C861.544 73.3255 857.622 74.0742 853.162 73.9766C848.898 73.8789 845.333 72.9674 842.469 71.2422C839.637 69.5169 837.423 67.222 835.828 64.3574C834.233 61.4928 833.191 58.2865 832.703 54.7383C832.247 51.1576 832.247 47.5117 832.703 43.8008L834.461 31.9844C835.079 27.9479 836.105 24.0742 837.537 20.3633C838.969 16.6198 840.874 13.2669 843.25 10.3047C845.659 7.34245 848.572 5.01497 851.99 3.32227C855.408 1.59701 859.38 0.799479 863.904 0.929688C868.234 1.02734 871.814 1.98763 874.646 3.81055C877.479 5.63346 879.676 8.04232 881.238 11.0371C882.801 13.9993 883.794 17.3034 884.217 20.9492C884.64 24.5625 884.607 28.2246 884.119 31.9355ZM868.543 43.8008L870.252 31.7402C870.48 30.0801 870.643 28.2083 870.74 26.125C870.87 24.0091 870.757 21.9583 870.398 19.9727C870.04 17.9544 869.292 16.278 868.152 14.9434C867.013 13.6087 865.255 12.8926 862.879 12.7949C860.275 12.6647 858.094 13.1855 856.336 14.3574C854.611 15.5293 853.211 17.1081 852.137 19.0938C851.062 21.0469 850.232 23.1465 849.646 25.3926C849.093 27.6387 848.654 29.7871 848.328 31.8379L846.668 43.8496C846.44 45.5423 846.277 47.4141 846.18 49.4648C846.082 51.5156 846.229 53.5013 846.619 55.4219C847.042 57.3099 847.824 58.8887 848.963 60.1582C850.135 61.3952 851.909 62.0625 854.285 62.1602C856.792 62.2904 858.891 61.8021 860.584 60.6953C862.277 59.556 863.66 58.0586 864.734 56.2031C865.809 54.3477 866.639 52.3294 867.225 50.1484C867.811 47.9349 868.25 45.819 868.543 43.8008ZM930.555 1.90625H944.471L936.17 50.6855C935.519 55.4707 934.087 59.6374 931.873 63.1855C929.692 66.7012 926.779 69.403 923.133 71.291C919.487 73.179 915.19 74.0905 910.242 74.0254C905.555 73.9277 901.665 72.9023 898.572 70.9492C895.48 68.9635 893.266 66.2454 891.932 62.7949C890.63 59.3118 890.239 55.2917 890.76 50.7344L899.061 1.90625H912.928L904.773 50.7832C904.546 52.7363 904.513 54.5755 904.676 56.3008C904.839 57.9935 905.424 59.377 906.434 60.4512C907.443 61.4928 909.103 62.0625 911.414 62.1602C913.855 62.2578 915.809 61.8184 917.273 60.8418C918.771 59.8652 919.894 58.498 920.643 56.7402C921.424 54.9499 921.993 52.9642 922.352 50.7832L930.555 1.90625ZM955.018 1.90625L976.502 1.95508C980.766 2.08529 984.347 3.01302 987.244 4.73828C990.174 6.43099 992.339 8.83984 993.738 11.9648C995.171 15.0573 995.708 18.7357 995.35 23C995.057 26.5482 994.292 29.6569 993.055 32.3262C991.85 34.9629 990.158 37.2741 987.977 39.2598C985.796 41.2129 983.126 42.9219 979.969 44.3867L975.232 46.9258H956.58L958.631 35.0605L970.447 35.1582C972.628 35.1257 974.484 34.6211 976.014 33.6445C977.544 32.668 978.748 31.3496 979.627 29.6895C980.538 28.0293 981.124 26.1901 981.385 24.1719C981.58 22.6419 981.596 21.0957 981.434 19.5332C981.303 17.9707 980.815 16.6523 979.969 15.5781C979.122 14.5039 977.771 13.918 975.916 13.8203L966.98 13.7715L956.727 73H942.762L955.018 1.90625ZM974.354 73L967.176 41.3105L981.238 41.2617L989.246 72.2188V73H974.354ZM1056.24 1.90625L1043.88 73H1029.97L1042.32 1.90625H1056.24ZM1073.33 1.90625L1071.28 13.7715H1023.47L1025.53 1.90625H1073.33ZM1110.68 61.1836L1108.58 73H1078.6L1080.6 61.1836H1110.68ZM1095.25 1.90625L1082.95 73H1068.98L1081.24 1.90625H1095.25ZM1111.95 30.7148L1109.95 42.1895H1083.92L1085.88 30.7148H1111.95ZM1120.84 1.90625L1118.74 13.7715H1088.81L1090.91 1.90625H1120.84ZM1157.07 61.1836L1154.97 73H1126.26L1128.31 61.1836H1157.07ZM1142.91 1.90625L1130.6 73H1116.64L1128.89 1.90625H1142.91ZM1204.82 61.1836L1202.72 73H1172.74L1174.74 61.1836H1204.82ZM1189.39 1.90625L1177.09 73H1163.12L1175.38 1.90625H1189.39ZM1206.09 30.7148L1204.09 42.1895H1178.06L1180.02 30.7148H1206.09ZM1214.98 1.90625L1212.88 13.7715H1182.95L1185.05 1.90625H1214.98ZM1264.05 35.6465L1259.61 64.9434C1257.65 67.1243 1255.36 68.8822 1252.72 70.2168C1250.09 71.5514 1247.3 72.5117 1244.37 73.0977C1241.44 73.7161 1238.56 74.0091 1235.73 73.9766C1231.37 73.9115 1227.74 73.0163 1224.84 71.291C1221.94 69.5658 1219.68 67.2708 1218.05 64.4062C1216.46 61.5091 1215.42 58.2702 1214.93 54.6895C1214.47 51.1087 1214.49 47.3815 1214.98 43.5078L1216.83 31.3984C1217.42 27.3945 1218.41 23.5534 1219.81 19.875C1221.21 16.1966 1223.07 12.9089 1225.38 10.0117C1227.69 7.11458 1230.52 4.85221 1233.88 3.22461C1237.26 1.56445 1241.22 0.783203 1245.74 0.880859C1250.69 1.01107 1254.64 2.06901 1257.61 4.05469C1260.57 6.00781 1262.73 8.75846 1264.1 12.3066C1265.47 15.8223 1266.18 19.8913 1266.25 24.5137H1252.72C1252.76 22.4954 1252.61 20.6074 1252.28 18.8496C1251.96 17.0592 1251.26 15.6107 1250.18 14.5039C1249.11 13.3646 1247.38 12.7461 1245.01 12.6484C1242.44 12.5508 1240.29 13.0716 1238.56 14.2109C1236.87 15.3503 1235.49 16.8477 1234.41 18.7031C1233.34 20.5586 1232.51 22.6094 1231.92 24.8555C1231.37 27.069 1230.98 29.2174 1230.75 31.3008L1228.99 43.5566C1228.76 45.4121 1228.59 47.3978 1228.46 49.5137C1228.36 51.6296 1228.52 53.6478 1228.94 55.5684C1229.4 57.4564 1230.26 59.0189 1231.53 60.2559C1232.8 61.4603 1234.69 62.0788 1237.2 62.1113C1238.33 62.1113 1239.38 62.0137 1240.32 61.8184C1241.3 61.5905 1242.22 61.2812 1243.1 60.8906C1244.01 60.4674 1244.93 60.0117 1245.84 59.5234L1248.43 46.4375H1238.46L1240.37 35.6465H1264.05ZM1279.92 1.90625L1301.4 1.95508C1305.67 2.08529 1309.25 3.01302 1312.15 4.73828C1315.08 6.43099 1317.24 8.83984 1318.64 11.9648C1320.07 15.0573 1320.61 18.7357 1320.25 23C1319.96 26.5482 1319.19 29.6569 1317.96 32.3262C1316.75 34.9629 1315.06 37.2741 1312.88 39.2598C1310.7 41.2129 1308.03 42.9219 1304.87 44.3867L1300.13 46.9258H1281.48L1283.53 35.0605L1295.35 35.1582C1297.53 35.1257 1299.39 34.6211 1300.92 33.6445C1302.45 32.668 1303.65 31.3496 1304.53 29.6895C1305.44 28.0293 1306.03 26.1901 1306.29 24.1719C1306.48 22.6419 1306.5 21.0957 1306.34 19.5332C1306.21 17.9707 1305.72 16.6523 1304.87 15.5781C1304.02 14.5039 1302.67 13.918 1300.82 13.8203L1291.88 13.7715L1281.63 73H1267.66L1279.92 1.90625ZM1299.26 73L1292.08 41.3105L1306.14 41.2617L1314.15 72.2188V73H1299.26ZM1356.38 15.2852L1331.73 73H1316.59L1350.48 1.90625H1360L1356.38 15.2852ZM1358.19 73L1353.31 14.1133L1354.09 1.90625H1363.12L1372.55 73H1358.19ZM1363.22 46.4863L1361.12 58.3516H1329.87L1331.97 46.4863H1363.22ZM1398.04 1.90625H1409.41L1413.71 53.2246L1435.63 1.90625H1447.79L1415.37 73H1405.85L1398.04 1.90625ZM1391.49 1.90625H1403.21L1396.47 54.25L1393.15 73H1379.24L1391.49 1.90625ZM1442.18 1.90625H1453.94L1441.64 73H1427.67L1431.19 52.9805L1442.18 1.90625ZM220.74 178.77L240.955 118.906H248.328L249.158 128.916L227.82 190H219.764L220.74 178.77ZM226.307 118.906L225.77 180.137L222.791 190H214.002L212.732 118.906H226.307ZM249.256 178.623L267.371 118.906H281.336L257.947 190H249.061L249.256 178.623ZM252.625 118.906L254.285 180.283L251.893 190H243.982L241.785 127.549L245.252 118.906H252.625ZM303.992 118.906L291.639 190H277.723L290.076 118.906H303.992ZM341.785 118.906L329.432 190H315.516L327.869 118.906H341.785ZM358.875 118.906L356.824 130.771H309.021L311.072 118.906H358.875ZM400.184 147.715L398.084 159.531H369.715L371.766 147.715H400.184ZM380.799 118.906L368.494 190H354.529L366.785 118.906H380.799ZM415.223 118.906L402.869 190H389.051L401.404 118.906H415.223ZM470.496 179.16L484.852 195.029L475.33 202.744L461.365 186.924L470.496 179.16ZM492.42 148.936L490.711 159.922C490.125 163.926 489.116 167.816 487.684 171.592C486.251 175.335 484.331 178.688 481.922 181.65C479.546 184.58 476.665 186.891 473.279 188.584C469.894 190.277 465.923 191.074 461.365 190.977C457.036 190.879 453.455 189.935 450.623 188.145C447.791 186.322 445.577 183.929 443.982 180.967C442.42 177.972 441.411 174.668 440.955 171.055C440.532 167.409 440.548 163.714 441.004 159.971L442.664 148.936C443.283 144.932 444.308 141.074 445.74 137.363C447.205 133.62 449.126 130.267 451.502 127.305C453.911 124.342 456.824 122.015 460.242 120.322C463.66 118.597 467.615 117.799 472.107 117.93C476.437 117.995 480.018 118.939 482.85 120.762C485.682 122.585 487.879 124.993 489.441 127.988C491.036 130.951 492.046 134.255 492.469 137.9C492.892 141.546 492.876 145.225 492.42 148.936ZM476.941 159.971L478.553 148.74C478.748 147.08 478.911 145.208 479.041 143.125C479.171 141.009 479.041 138.958 478.65 136.973C478.292 134.954 477.527 133.278 476.355 131.943C475.216 130.609 473.475 129.893 471.131 129.795C468.494 129.665 466.297 130.186 464.539 131.357C462.814 132.529 461.414 134.108 460.34 136.094C459.298 138.047 458.468 140.146 457.85 142.393C457.264 144.639 456.824 146.787 456.531 148.838L454.969 160.02C454.741 161.712 454.562 163.633 454.432 165.781C454.334 167.897 454.464 169.964 454.822 171.982C455.18 173.968 455.929 175.645 457.068 177.012C458.24 178.346 460.031 179.062 462.439 179.16C465.044 179.29 467.208 178.77 468.934 177.598C470.659 176.393 472.042 174.814 473.084 172.861C474.158 170.876 474.988 168.76 475.574 166.514C476.193 164.235 476.648 162.054 476.941 159.971ZM538.855 118.906H552.771L544.471 167.686C543.82 172.471 542.387 176.637 540.174 180.186C537.993 183.701 535.079 186.403 531.434 188.291C527.788 190.179 523.491 191.09 518.543 191.025C513.855 190.928 509.965 189.902 506.873 187.949C503.781 185.964 501.567 183.245 500.232 179.795C498.93 176.312 498.54 172.292 499.061 167.734L507.361 118.906H521.229L513.074 167.783C512.846 169.736 512.814 171.576 512.977 173.301C513.139 174.993 513.725 176.377 514.734 177.451C515.743 178.493 517.404 179.062 519.715 179.16C522.156 179.258 524.109 178.818 525.574 177.842C527.072 176.865 528.195 175.498 528.943 173.74C529.725 171.95 530.294 169.964 530.652 167.783L538.855 118.906ZM592.713 178.184L590.613 190H560.633L562.635 178.184H592.713ZM577.283 118.906L564.979 190H551.014L563.27 118.906H577.283ZM593.982 147.715L591.98 159.189H565.955L567.908 147.715H593.982ZM602.869 118.906L600.77 130.771H570.838L572.938 118.906H602.869ZM641.98 118.906H655.896L647.596 167.686C646.945 172.471 645.512 176.637 643.299 180.186C641.118 183.701 638.204 186.403 634.559 188.291C630.913 190.179 626.616 191.09 621.668 191.025C616.98 190.928 613.09 189.902 609.998 187.949C606.906 185.964 604.692 183.245 603.357 179.795C602.055 176.312 601.665 172.292 602.186 167.734L610.486 118.906H624.354L616.199 167.783C615.971 169.736 615.939 171.576 616.102 173.301C616.264 174.993 616.85 176.377 617.859 177.451C618.868 178.493 620.529 179.062 622.84 179.16C625.281 179.258 627.234 178.818 628.699 177.842C630.197 176.865 631.32 175.498 632.068 173.74C632.85 171.95 633.419 169.964 633.777 167.783L641.98 118.906ZM695.838 178.184L693.738 190H663.758L665.76 178.184H695.838ZM680.408 118.906L668.104 190H654.139L666.395 118.906H680.408ZM697.107 147.715L695.105 159.189H669.08L671.033 147.715H697.107ZM705.994 118.906L703.895 130.771H673.963L676.062 118.906H705.994ZM731.385 153.818L729.383 165.195H706.238L708.24 153.818H731.385ZM780.164 118.906H794.08L785.779 167.686C785.128 172.471 783.696 176.637 781.482 180.186C779.301 183.701 776.388 186.403 772.742 188.291C769.096 190.179 764.799 191.09 759.852 191.025C755.164 190.928 751.274 189.902 748.182 187.949C745.089 185.964 742.876 183.245 741.541 179.795C740.239 176.312 739.848 172.292 740.369 167.734L748.67 118.906H762.537L754.383 167.783C754.155 169.736 754.122 171.576 754.285 173.301C754.448 174.993 755.034 176.377 756.043 177.451C757.052 178.493 758.712 179.062 761.023 179.16C763.465 179.258 765.418 178.818 766.883 177.842C768.38 176.865 769.503 175.498 770.252 173.74C771.033 171.95 771.603 169.964 771.961 167.783L780.164 118.906ZM820.984 165L805.994 164.951L808.094 153.086L821.57 153.184C823.784 153.151 825.639 152.63 827.137 151.621C828.667 150.579 829.855 149.245 830.701 147.617C831.58 145.957 832.166 144.118 832.459 142.1C832.654 140.602 832.671 139.007 832.508 137.314C832.345 135.589 831.824 134.124 830.945 132.92C830.099 131.683 828.732 130.999 826.844 130.869L816.492 130.771L806.238 190H792.322L804.578 118.906L827.479 118.955C831.808 119.085 835.454 120.192 838.416 122.275C841.411 124.326 843.592 127.077 844.959 130.527C846.359 133.978 846.88 137.803 846.521 142.002C846.098 146.689 844.731 150.758 842.42 154.209C840.141 157.627 837.163 160.296 833.484 162.217C829.806 164.105 825.639 165.033 820.984 165ZM930.994 118.906L918.641 190H905.018L892.518 142.637L884.314 190H870.35L882.605 118.906H896.277L908.875 166.318L917.078 118.906H930.994ZM985.193 148.936L983.436 160.703C982.817 164.707 981.792 168.564 980.359 172.275C978.927 175.954 977.023 179.209 974.646 182.041C972.27 184.873 969.389 187.103 966.004 188.73C962.618 190.326 958.696 191.074 954.236 190.977C949.972 190.879 946.408 189.967 943.543 188.242C940.711 186.517 938.497 184.222 936.902 181.357C935.307 178.493 934.266 175.286 933.777 171.738C933.322 168.158 933.322 164.512 933.777 160.801L935.535 148.984C936.154 144.948 937.179 141.074 938.611 137.363C940.044 133.62 941.948 130.267 944.324 127.305C946.733 124.342 949.646 122.015 953.064 120.322C956.482 118.597 960.454 117.799 964.979 117.93C969.308 118.027 972.889 118.988 975.721 120.811C978.553 122.633 980.75 125.042 982.312 128.037C983.875 130.999 984.868 134.303 985.291 137.949C985.714 141.562 985.682 145.225 985.193 148.936ZM969.617 160.801L971.326 148.74C971.554 147.08 971.717 145.208 971.814 143.125C971.945 141.009 971.831 138.958 971.473 136.973C971.115 134.954 970.366 133.278 969.227 131.943C968.087 130.609 966.329 129.893 963.953 129.795C961.349 129.665 959.168 130.186 957.41 131.357C955.685 132.529 954.285 134.108 953.211 136.094C952.137 138.047 951.307 140.146 950.721 142.393C950.167 144.639 949.728 146.787 949.402 148.838L947.742 160.85C947.514 162.542 947.352 164.414 947.254 166.465C947.156 168.516 947.303 170.501 947.693 172.422C948.117 174.31 948.898 175.889 950.037 177.158C951.209 178.395 952.983 179.062 955.359 179.16C957.866 179.29 959.965 178.802 961.658 177.695C963.351 176.556 964.734 175.059 965.809 173.203C966.883 171.348 967.713 169.329 968.299 167.148C968.885 164.935 969.324 162.819 969.617 160.801ZM1004.63 178.77L1024.84 118.906H1032.21L1033.04 128.916L1011.71 190H1003.65L1004.63 178.77ZM1010.19 118.906L1009.66 180.137L1006.68 190H997.889L996.619 118.906H1010.19ZM1033.14 178.623L1051.26 118.906H1065.22L1041.83 190H1032.95L1033.14 178.623ZM1036.51 118.906L1038.17 180.283L1035.78 190H1027.87L1025.67 127.549L1029.14 118.906H1036.51ZM1113.17 158.994H1098.43L1100.23 148.643L1111.66 148.74C1113.58 148.708 1115.27 148.333 1116.74 147.617C1118.2 146.868 1119.37 145.811 1120.25 144.443C1121.13 143.076 1121.7 141.432 1121.96 139.512C1122.19 137.852 1122.19 136.403 1121.96 135.166C1121.77 133.896 1121.2 132.887 1120.25 132.139C1119.34 131.357 1117.99 130.918 1116.2 130.82L1108.14 130.771L1097.89 190H1083.92L1096.18 118.906L1116.79 118.955C1119.78 119.02 1122.51 119.46 1124.99 120.273C1127.46 121.055 1129.56 122.243 1131.29 123.838C1133.04 125.4 1134.36 127.37 1135.24 129.746C1136.12 132.09 1136.45 134.84 1136.22 137.998C1135.96 141.611 1134.98 144.655 1133.29 147.129C1131.63 149.57 1129.43 151.475 1126.7 152.842C1123.96 154.209 1120.85 154.99 1117.37 155.186L1113.17 158.994ZM1107.46 190H1088.9L1096.38 178.232L1108.14 178.281C1110.06 178.216 1111.71 177.76 1113.07 176.914C1114.47 176.068 1115.58 174.928 1116.39 173.496C1117.24 172.064 1117.79 170.404 1118.05 168.516C1118.25 167.148 1118.3 165.765 1118.2 164.365C1118.1 162.933 1117.7 161.729 1116.98 160.752C1116.26 159.743 1115.03 159.173 1113.27 159.043L1100.67 158.994L1102.58 148.643L1116.69 148.691L1119.08 152.744C1122.17 152.842 1124.68 153.607 1126.6 155.039C1128.55 156.471 1129.95 158.376 1130.8 160.752C1131.65 163.096 1131.95 165.749 1131.73 168.711C1131.43 173.333 1130.21 177.24 1128.06 180.43C1125.95 183.587 1123.12 185.996 1119.57 187.656C1116.02 189.284 1111.98 190.065 1107.46 190ZM1193.88 148.936L1192.13 160.703C1191.51 164.707 1190.48 168.564 1189.05 172.275C1187.62 175.954 1185.71 179.209 1183.34 182.041C1180.96 184.873 1178.08 187.103 1174.7 188.73C1171.31 190.326 1167.39 191.074 1162.93 190.977C1158.66 190.879 1155.1 189.967 1152.23 188.242C1149.4 186.517 1147.19 184.222 1145.59 181.357C1144 178.493 1142.96 175.286 1142.47 171.738C1142.01 168.158 1142.01 164.512 1142.47 160.801L1144.23 148.984C1144.85 144.948 1145.87 141.074 1147.3 137.363C1148.74 133.62 1150.64 130.267 1153.02 127.305C1155.42 124.342 1158.34 122.015 1161.76 120.322C1165.17 118.597 1169.15 117.799 1173.67 117.93C1178 118.027 1181.58 118.988 1184.41 120.811C1187.24 122.633 1189.44 125.042 1191 128.037C1192.57 130.999 1193.56 134.303 1193.98 137.949C1194.41 141.562 1194.37 145.225 1193.88 148.936ZM1178.31 160.801L1180.02 148.74C1180.25 147.08 1180.41 145.208 1180.51 143.125C1180.64 141.009 1180.52 138.958 1180.16 136.973C1179.81 134.954 1179.06 133.278 1177.92 131.943C1176.78 130.609 1175.02 129.893 1172.64 129.795C1170.04 129.665 1167.86 130.186 1166.1 131.357C1164.38 132.529 1162.98 134.108 1161.9 136.094C1160.83 138.047 1160 140.146 1159.41 142.393C1158.86 144.639 1158.42 146.787 1158.09 148.838L1156.43 160.85C1156.21 162.542 1156.04 164.414 1155.95 166.465C1155.85 168.516 1155.99 170.501 1156.38 172.422C1156.81 174.31 1157.59 175.889 1158.73 177.158C1159.9 178.395 1161.67 179.062 1164.05 179.16C1166.56 179.29 1168.66 178.802 1170.35 177.695C1172.04 176.556 1173.43 175.059 1174.5 173.203C1175.57 171.348 1176.4 169.329 1176.99 167.148C1177.58 164.935 1178.02 162.819 1178.31 160.801ZM1232.8 118.906L1220.45 190H1206.53L1218.88 118.906H1232.8ZM1249.89 118.906L1247.84 130.771H1200.04L1202.09 118.906H1249.89Z" fill="#3B82F6"/>
</svg>
