<svg width="811" height="192" viewBox="0 0 811 192" fill="none" xmlns="http://www.w3.org/2000/svg">
<path d="M85.5176 1.90625H96.8945L101.191 53.2246L123.115 1.90625H135.273L102.852 73H93.3301L85.5176 1.90625ZM78.9746 1.90625H90.6934L83.9551 54.25L80.6348 73H66.7188L78.9746 1.90625ZM129.658 1.90625H141.426L129.121 73H115.156L118.672 52.9805L129.658 1.90625ZM176.191 15.2852L151.533 73H136.396L170.283 1.90625H179.805L176.191 15.2852ZM177.998 73L173.115 14.1133L173.896 1.90625H182.93L192.354 73H177.998ZM183.027 46.4863L180.928 58.3516H149.678L151.777 46.4863H183.027ZM259.688 1.90625L247.334 73H233.711L221.211 25.6367L213.008 73H199.043L211.299 1.90625H224.971L237.568 49.3184L245.771 1.90625H259.688ZM294.355 15.2852L269.697 73H254.561L288.447 1.90625H297.969L294.355 15.2852ZM296.162 73L291.279 14.1133L292.061 1.90625H301.094L310.518 73H296.162ZM301.191 46.4863L299.092 58.3516H267.842L269.941 46.4863H301.191ZM369.404 35.6465L364.961 64.9434C363.008 67.1243 360.713 68.8822 358.076 70.2168C355.439 71.5514 352.656 72.5117 349.727 73.0977C346.797 73.7161 343.916 74.0091 341.084 73.9766C336.722 73.9115 333.092 73.0163 330.195 71.291C327.298 69.5658 325.036 67.2708 323.408 64.4062C321.813 61.5091 320.771 58.2702 320.283 54.6895C319.827 51.1087 319.844 47.3815 320.332 43.5078L322.188 31.3984C322.773 27.3945 323.766 23.5534 325.166 19.875C326.566 16.1966 328.421 12.9089 330.732 10.0117C333.044 7.11458 335.876 4.85221 339.229 3.22461C342.614 1.56445 346.569 0.783203 351.094 0.880859C356.042 1.01107 359.997 2.06901 362.959 4.05469C365.921 6.00781 368.086 8.75846 369.453 12.3066C370.82 15.8223 371.536 19.8913 371.602 24.5137H358.076C358.109 22.4954 357.962 20.6074 357.637 18.8496C357.311 17.0592 356.611 15.6107 355.537 14.5039C354.463 13.3646 352.738 12.7461 350.361 12.6484C347.79 12.5508 345.641 13.0716 343.916 14.2109C342.223 15.3503 340.84 16.8477 339.766 18.7031C338.691 20.5586 337.861 22.6094 337.275 24.8555C336.722 27.069 336.331 29.2174 336.104 31.3008L334.346 43.5566C334.118 45.4121 333.939 47.3978 333.809 49.5137C333.711 51.6296 333.874 53.6478 334.297 55.5684C334.753 57.4564 335.615 59.0189 336.885 60.2559C338.154 61.4603 340.042 62.0788 342.549 62.1113C343.688 62.1113 344.73 62.0137 345.674 61.8184C346.65 61.5905 347.578 61.2812 348.457 60.8906C349.368 60.4674 350.28 60.0117 351.191 59.5234L353.779 46.4375H343.818L345.723 35.6465H369.404ZM414.668 61.1836L412.568 73H382.588L384.59 61.1836H414.668ZM399.238 1.90625L386.934 73H372.969L385.225 1.90625H399.238ZM415.938 30.7148L413.936 42.1895H387.91L389.863 30.7148H415.938ZM424.824 1.90625L422.725 13.7715H392.793L394.893 1.90625H424.824ZM455.781 1.90625L477.266 1.95508C481.53 2.08529 485.111 3.01302 488.008 4.73828C490.938 6.43099 493.102 8.83984 494.502 11.9648C495.934 15.0573 496.471 18.7357 496.113 23C495.82 26.5482 495.055 29.6569 493.818 32.3262C492.614 34.9629 490.921 37.2741 488.74 39.2598C486.559 41.2129 483.89 42.9219 480.732 44.3867L475.996 46.9258H457.344L459.395 35.0605L471.211 35.1582C473.392 35.1257 475.247 34.6211 476.777 33.6445C478.307 32.668 479.512 31.3496 480.391 29.6895C481.302 28.0293 481.888 26.1901 482.148 24.1719C482.344 22.6419 482.36 21.0957 482.197 19.5332C482.067 17.9707 481.579 16.6523 480.732 15.5781C479.886 14.5039 478.535 13.918 476.68 13.8203L467.744 13.7715L457.49 73H443.525L455.781 1.90625ZM475.117 73L467.939 41.3105L482.002 41.2617L490.01 72.2188V73H475.117ZM532.246 15.2852L507.588 73H492.451L526.338 1.90625H535.859L532.246 15.2852ZM534.053 73L529.17 14.1133L529.951 1.90625H538.984L548.408 73H534.053ZM539.082 46.4863L536.982 58.3516H505.732L507.832 46.4863H539.082ZM589.131 1.90625L576.777 73H562.861L575.215 1.90625H589.131ZM606.221 1.90625L604.17 13.7715H556.367L558.418 1.90625H606.221ZM628.682 1.90625L616.328 73H602.412L614.766 1.90625H628.682ZM688.691 1.90625L676.338 73H662.715L650.215 25.6367L642.012 73H628.047L640.303 1.90625H653.975L666.572 49.3184L674.775 1.90625H688.691ZM740.693 35.6465L736.25 64.9434C734.297 67.1243 732.002 68.8822 729.365 70.2168C726.729 71.5514 723.945 72.5117 721.016 73.0977C718.086 73.7161 715.205 74.0091 712.373 73.9766C708.011 73.9115 704.382 73.0163 701.484 71.291C698.587 69.5658 696.325 67.2708 694.697 64.4062C693.102 61.5091 692.061 58.2702 691.572 54.6895C691.117 51.1087 691.133 47.3815 691.621 43.5078L693.477 31.3984C694.062 27.3945 695.055 23.5534 696.455 19.875C697.855 16.1966 699.71 12.9089 702.021 10.0117C704.333 7.11458 707.165 4.85221 710.518 3.22461C713.903 1.56445 717.858 0.783203 722.383 0.880859C727.331 1.01107 731.286 2.06901 734.248 4.05469C737.21 6.00781 739.375 8.75846 740.742 12.3066C742.109 15.8223 742.826 19.8913 742.891 24.5137H729.365C729.398 22.4954 729.251 20.6074 728.926 18.8496C728.6 17.0592 727.9 15.6107 726.826 14.5039C725.752 13.3646 724.027 12.7461 721.65 12.6484C719.079 12.5508 716.93 13.0716 715.205 14.2109C713.512 15.3503 712.129 16.8477 711.055 18.7031C709.98 20.5586 709.15 22.6094 708.564 24.8555C708.011 27.069 707.62 29.2174 707.393 31.3008L705.635 43.5566C705.407 45.4121 705.228 47.3978 705.098 49.5137C705 51.6296 705.163 53.6478 705.586 55.5684C706.042 57.4564 706.904 59.0189 708.174 60.2559C709.443 61.4603 711.331 62.0788 713.838 62.1113C714.977 62.1113 716.019 62.0137 716.963 61.8184C717.939 61.5905 718.867 61.2812 719.746 60.8906C720.658 60.4674 721.569 60.0117 722.48 59.5234L725.068 46.4375H715.107L717.012 35.6465H740.693ZM26.8262 118.906L14.4727 190H0.556641L12.9102 118.906H26.8262ZM86.8359 118.906L74.4824 190H60.8594L48.3594 142.637L40.1562 190H26.1914L38.4473 118.906H52.1191L64.7168 166.318L72.9199 118.906H86.8359ZM118.135 170.908C118.33 169.443 118.281 168.174 117.988 167.1C117.728 166.025 117.24 165.081 116.523 164.268C115.84 163.421 114.993 162.673 113.984 162.021C112.975 161.338 111.836 160.703 110.566 160.117C108.223 158.978 106.042 157.725 104.023 156.357C102.005 154.99 100.215 153.444 98.6523 151.719C97.1224 149.993 95.9668 148.024 95.1855 145.811C94.4043 143.564 94.1113 141.042 94.3066 138.242C94.5345 135.052 95.3483 132.188 96.748 129.648C98.1478 127.109 99.9707 124.961 102.217 123.203C104.463 121.413 106.986 120.078 109.785 119.199C112.585 118.288 115.514 117.865 118.574 117.93C122.871 118.027 126.452 119.069 129.316 121.055C132.214 123.008 134.362 125.628 135.762 128.916C137.194 132.171 137.845 135.833 137.715 139.902L123.799 139.854C123.896 138.291 123.799 136.712 123.506 135.117C123.245 133.522 122.627 132.22 121.65 131.211C120.706 130.169 119.258 129.632 117.305 129.6C115.579 129.6 114.066 129.99 112.764 130.771C111.462 131.52 110.404 132.546 109.59 133.848C108.776 135.15 108.255 136.615 108.027 138.242C107.865 139.512 107.995 140.651 108.418 141.66C108.874 142.669 109.492 143.581 110.273 144.395C111.087 145.176 111.999 145.892 113.008 146.543C114.017 147.194 115.026 147.731 116.035 148.154C118.477 149.359 120.723 150.661 122.773 152.061C124.857 153.428 126.615 155.007 128.047 156.797C129.512 158.555 130.57 160.589 131.221 162.9C131.904 165.212 132.148 167.848 131.953 170.811C131.693 174.098 130.895 176.995 129.561 179.502C128.258 182.008 126.533 184.141 124.385 185.898C122.236 187.624 119.779 188.926 117.012 189.805C114.245 190.684 111.283 191.09 108.125 191.025C104.74 190.928 101.712 190.293 99.043 189.121C96.3737 187.917 94.1276 186.273 92.3047 184.189C90.5143 182.074 89.1797 179.6 88.3008 176.768C87.4219 173.903 87.0801 170.827 87.2754 167.539L101.191 167.588C101.094 169.118 101.11 170.599 101.24 172.031C101.37 173.464 101.729 174.717 102.314 175.791C102.9 176.865 103.747 177.728 104.854 178.379C105.96 179.03 107.425 179.355 109.248 179.355C110.973 179.355 112.454 178.997 113.691 178.281C114.928 177.533 115.921 176.523 116.67 175.254C117.419 173.984 117.907 172.536 118.135 170.908ZM164.717 118.906L152.363 190H138.447L150.801 118.906H164.717ZM182.832 190H169.941L172.09 178.184L183.516 178.232C187.357 178.265 190.417 177.484 192.695 175.889C195.007 174.261 196.732 172.08 197.871 169.346C199.01 166.579 199.84 163.454 200.361 159.971L201.924 148.838C202.184 146.787 202.363 144.72 202.461 142.637C202.591 140.553 202.428 138.633 201.973 136.875C201.517 135.117 200.605 133.701 199.238 132.627C197.904 131.52 195.918 130.918 193.281 130.82L179.951 130.771L182.051 118.906L193.867 118.955C198.164 119.053 201.81 119.932 204.805 121.592C207.799 123.252 210.192 125.482 211.982 128.281C213.805 131.081 215.026 134.255 215.645 137.803C216.263 141.351 216.328 145.078 215.84 148.984L214.18 160.02C213.529 164.219 212.373 168.158 210.713 171.836C209.085 175.482 206.953 178.672 204.316 181.406C201.712 184.108 198.62 186.224 195.039 187.754C191.491 189.284 187.422 190.033 182.832 190ZM190.352 118.906L178.047 190H164.082L176.338 118.906H190.352ZM260.566 178.184L258.467 190H228.486L230.488 178.184H260.566ZM245.137 118.906L232.832 190H218.867L231.123 118.906H245.137ZM261.836 147.715L259.834 159.189H233.809L235.762 147.715H261.836ZM270.723 118.906L268.623 130.771H238.691L240.791 118.906H270.723ZM311.787 118.906L316.719 150.791L332.637 118.906H348.359L321.504 164.854L317.158 190H303.047L307.686 163.438L297.139 118.906H311.787ZM396.016 148.936L394.258 160.703C393.639 164.707 392.614 168.564 391.182 172.275C389.749 175.954 387.845 179.209 385.469 182.041C383.092 184.873 380.212 187.103 376.826 188.73C373.441 190.326 369.518 191.074 365.059 190.977C360.794 190.879 357.23 189.967 354.365 188.242C351.533 186.517 349.32 184.222 347.725 181.357C346.13 178.493 345.088 175.286 344.6 171.738C344.144 168.158 344.144 164.512 344.6 160.801L346.357 148.984C346.976 144.948 348.001 141.074 349.434 137.363C350.866 133.62 352.77 130.267 355.146 127.305C357.555 124.342 360.469 122.015 363.887 120.322C367.305 118.597 371.276 117.799 375.801 117.93C380.13 118.027 383.711 118.988 386.543 120.811C389.375 122.633 391.572 125.042 393.135 128.037C394.697 130.999 395.69 134.303 396.113 137.949C396.536 141.562 396.504 145.225 396.016 148.936ZM380.439 160.801L382.148 148.74C382.376 147.08 382.539 145.208 382.637 143.125C382.767 141.009 382.653 138.958 382.295 136.973C381.937 134.954 381.188 133.278 380.049 131.943C378.91 130.609 377.152 129.893 374.775 129.795C372.171 129.665 369.99 130.186 368.232 131.357C366.507 132.529 365.107 134.108 364.033 136.094C362.959 138.047 362.129 140.146 361.543 142.393C360.99 144.639 360.55 146.787 360.225 148.838L358.564 160.85C358.337 162.542 358.174 164.414 358.076 166.465C357.979 168.516 358.125 170.501 358.516 172.422C358.939 174.31 359.72 175.889 360.859 177.158C362.031 178.395 363.805 179.062 366.182 179.16C368.688 179.29 370.788 178.802 372.48 177.695C374.173 176.556 375.557 175.059 376.631 173.203C377.705 171.348 378.535 169.329 379.121 167.148C379.707 164.935 380.146 162.819 380.439 160.801ZM442.451 118.906H456.367L448.066 167.686C447.415 172.471 445.983 176.637 443.77 180.186C441.589 183.701 438.675 186.403 435.029 188.291C431.383 190.179 427.087 191.09 422.139 191.025C417.451 190.928 413.561 189.902 410.469 187.949C407.376 185.964 405.163 183.245 403.828 179.795C402.526 176.312 402.135 172.292 402.656 167.734L410.957 118.906H424.824L416.67 167.783C416.442 169.736 416.41 171.576 416.572 173.301C416.735 174.993 417.321 176.377 418.33 177.451C419.339 178.493 420.999 179.062 423.311 179.16C425.752 179.258 427.705 178.818 429.17 177.842C430.667 176.865 431.79 175.498 432.539 173.74C433.32 171.95 433.89 169.964 434.248 167.783L442.451 118.906ZM466.914 118.906L488.398 118.955C492.663 119.085 496.243 120.013 499.141 121.738C502.07 123.431 504.235 125.84 505.635 128.965C507.067 132.057 507.604 135.736 507.246 140C506.953 143.548 506.188 146.657 504.951 149.326C503.747 151.963 502.054 154.274 499.873 156.26C497.692 158.213 495.023 159.922 491.865 161.387L487.129 163.926H468.477L470.527 152.061L482.344 152.158C484.525 152.126 486.38 151.621 487.91 150.645C489.44 149.668 490.645 148.35 491.523 146.689C492.435 145.029 493.021 143.19 493.281 141.172C493.477 139.642 493.493 138.096 493.33 136.533C493.2 134.971 492.712 133.652 491.865 132.578C491.019 131.504 489.668 130.918 487.812 130.82L478.877 130.771L468.623 190H454.658L466.914 118.906ZM486.25 190L479.072 158.311L493.135 158.262L501.143 189.219V190H486.25ZM584.443 152.646L580 181.943C578.047 184.124 575.752 185.882 573.115 187.217C570.479 188.551 567.695 189.512 564.766 190.098C561.836 190.716 558.955 191.009 556.123 190.977C551.761 190.911 548.132 190.016 545.234 188.291C542.337 186.566 540.075 184.271 538.447 181.406C536.852 178.509 535.811 175.27 535.322 171.689C534.867 168.109 534.883 164.382 535.371 160.508L537.227 148.398C537.812 144.395 538.805 140.553 540.205 136.875C541.605 133.197 543.46 129.909 545.771 127.012C548.083 124.115 550.915 121.852 554.268 120.225C557.653 118.564 561.608 117.783 566.133 117.881C571.081 118.011 575.036 119.069 577.998 121.055C580.96 123.008 583.125 125.758 584.492 129.307C585.859 132.822 586.576 136.891 586.641 141.514H573.115C573.148 139.495 573.001 137.607 572.676 135.85C572.35 134.059 571.65 132.611 570.576 131.504C569.502 130.365 567.777 129.746 565.4 129.648C562.829 129.551 560.68 130.072 558.955 131.211C557.262 132.35 555.879 133.848 554.805 135.703C553.73 137.559 552.9 139.609 552.314 141.855C551.761 144.069 551.37 146.217 551.143 148.301L549.385 160.557C549.157 162.412 548.978 164.398 548.848 166.514C548.75 168.63 548.913 170.648 549.336 172.568C549.792 174.456 550.654 176.019 551.924 177.256C553.193 178.46 555.081 179.079 557.588 179.111C558.727 179.111 559.769 179.014 560.713 178.818C561.689 178.59 562.617 178.281 563.496 177.891C564.408 177.467 565.319 177.012 566.23 176.523L568.818 163.438H558.857L560.762 152.646H584.443ZM600.312 118.906L621.797 118.955C626.061 119.085 629.642 120.013 632.539 121.738C635.469 123.431 637.633 125.84 639.033 128.965C640.465 132.057 641.003 135.736 640.645 140C640.352 143.548 639.587 146.657 638.35 149.326C637.145 151.963 635.452 154.274 633.271 156.26C631.09 158.213 628.421 159.922 625.264 161.387L620.527 163.926H601.875L603.926 152.061L615.742 152.158C617.923 152.126 619.779 151.621 621.309 150.645C622.839 149.668 624.043 148.35 624.922 146.689C625.833 145.029 626.419 143.19 626.68 141.172C626.875 139.642 626.891 138.096 626.729 136.533C626.598 134.971 626.11 133.652 625.264 132.578C624.417 131.504 623.066 130.918 621.211 130.82L612.275 130.771L602.021 190H588.057L600.312 118.906ZM619.648 190L612.471 158.311L626.533 158.262L634.541 189.219V190H619.648ZM697.188 148.936L695.43 160.703C694.811 164.707 693.786 168.564 692.354 172.275C690.921 175.954 689.017 179.209 686.641 182.041C684.264 184.873 681.383 187.103 677.998 188.73C674.613 190.326 670.69 191.074 666.23 190.977C661.966 190.879 658.402 189.967 655.537 188.242C652.705 186.517 650.492 184.222 648.896 181.357C647.301 178.493 646.26 175.286 645.771 171.738C645.316 168.158 645.316 164.512 645.771 160.801L647.529 148.984C648.148 144.948 649.173 141.074 650.605 137.363C652.038 133.62 653.942 130.267 656.318 127.305C658.727 124.342 661.641 122.015 665.059 120.322C668.477 118.597 672.448 117.799 676.973 117.93C681.302 118.027 684.883 118.988 687.715 120.811C690.547 122.633 692.744 125.042 694.307 128.037C695.869 130.999 696.862 134.303 697.285 137.949C697.708 141.562 697.676 145.225 697.188 148.936ZM681.611 160.801L683.32 148.74C683.548 147.08 683.711 145.208 683.809 143.125C683.939 141.009 683.825 138.958 683.467 136.973C683.109 134.954 682.36 133.278 681.221 131.943C680.081 130.609 678.324 129.893 675.947 129.795C673.343 129.665 671.162 130.186 669.404 131.357C667.679 132.529 666.279 134.108 665.205 136.094C664.131 138.047 663.301 140.146 662.715 142.393C662.161 144.639 661.722 146.787 661.396 148.838L659.736 160.85C659.508 162.542 659.346 164.414 659.248 166.465C659.15 168.516 659.297 170.501 659.688 172.422C660.111 174.31 660.892 175.889 662.031 177.158C663.203 178.395 664.977 179.062 667.354 179.16C669.86 179.29 671.96 178.802 673.652 177.695C675.345 176.556 676.729 175.059 677.803 173.203C678.877 171.348 679.707 169.329 680.293 167.148C680.879 164.935 681.318 162.819 681.611 160.801ZM743.623 118.906H757.539L749.238 167.686C748.587 172.471 747.155 176.637 744.941 180.186C742.76 183.701 739.847 186.403 736.201 188.291C732.555 190.179 728.258 191.09 723.311 191.025C718.623 190.928 714.733 189.902 711.641 187.949C708.548 185.964 706.335 183.245 705 179.795C703.698 176.312 703.307 172.292 703.828 167.734L712.129 118.906H725.996L717.842 167.783C717.614 169.736 717.581 171.576 717.744 173.301C717.907 174.993 718.493 176.377 719.502 177.451C720.511 178.493 722.171 179.062 724.482 179.16C726.924 179.258 728.877 178.818 730.342 177.842C731.839 176.865 732.962 175.498 733.711 173.74C734.492 171.95 735.062 169.964 735.42 167.783L743.623 118.906ZM784.443 165L769.453 164.951L771.553 153.086L785.029 153.184C787.243 153.151 789.098 152.63 790.596 151.621C792.126 150.579 793.314 149.245 794.16 147.617C795.039 145.957 795.625 144.118 795.918 142.1C796.113 140.602 796.13 139.007 795.967 137.314C795.804 135.589 795.283 134.124 794.404 132.92C793.558 131.683 792.191 130.999 790.303 130.869L779.951 130.771L769.697 190H755.781L768.037 118.906L790.938 118.955C795.267 119.085 798.913 120.192 801.875 122.275C804.87 124.326 807.051 127.077 808.418 130.527C809.818 133.978 810.339 137.803 809.98 142.002C809.557 146.689 808.19 150.758 805.879 154.209C803.6 157.627 800.622 160.296 796.943 162.217C793.265 164.105 789.098 165.033 784.443 165Z" fill="#3B82F6"/>
</svg>
