<svg width="810" height="192" viewBox="0 0 810 192" fill="none" xmlns="http://www.w3.org/2000/svg">
<path d="M29.0449 48L14.0547 47.9512L16.1543 36.0859L29.6309 36.1836C31.8444 36.151 33.6999 35.6302 35.1973 34.6211C36.7272 33.5794 37.9154 32.2448 38.7617 30.6172C39.6406 28.957 40.2266 27.1178 40.5195 25.0996C40.7148 23.6022 40.7311 22.0072 40.5684 20.3145C40.4056 18.5892 39.8848 17.1243 39.0059 15.9199C38.1595 14.6829 36.7923 13.9993 34.9043 13.8691L24.5527 13.7715L14.2988 73H0.382812L12.6387 1.90625L35.5391 1.95508C39.8685 2.08529 43.5143 3.19206 46.4766 5.27539C49.4714 7.32617 51.6523 10.0768 53.0195 13.5273C54.4193 16.9779 54.9401 20.8027 54.582 25.002C54.1589 29.6895 52.7917 33.7585 50.4805 37.209C48.2018 40.627 45.2233 43.2962 41.5449 45.2168C37.8665 47.1048 33.6999 48.0326 29.0449 48ZM95.9883 61.1836L93.8887 73H65.1777L67.2285 61.1836H95.9883ZM81.8281 1.90625L69.5234 73H55.5586L67.8145 1.90625H81.8281ZM138.078 15.2852L113.42 73H98.2832L132.17 1.90625H141.691L138.078 15.2852ZM139.885 73L135.002 14.1133L135.783 1.90625H144.816L154.24 73H139.885ZM144.914 46.4863L142.814 58.3516H111.564L113.664 46.4863H144.914ZM221.574 1.90625L209.221 73H195.598L183.098 25.6367L174.895 73H160.93L173.186 1.90625H186.857L199.455 49.3184L207.658 1.90625H221.574ZM280.119 1.90625L267.766 73H253.85L266.203 1.90625H280.119ZM297.209 1.90625L295.158 13.7715H247.355L249.406 1.90625H297.209ZM322.062 15.2852L297.404 73H282.268L316.154 1.90625H325.676L322.062 15.2852ZM323.869 73L318.986 14.1133L319.768 1.90625H328.801L338.225 73H323.869ZM328.898 46.4863L326.799 58.3516H295.549L297.648 46.4863H328.898ZM377.482 53.9082C377.678 52.4434 377.629 51.1738 377.336 50.0996C377.076 49.0254 376.587 48.0814 375.871 47.2676C375.188 46.4212 374.341 45.6725 373.332 45.0215C372.323 44.3379 371.184 43.7031 369.914 43.1172C367.57 41.9779 365.389 40.7246 363.371 39.3574C361.353 37.9902 359.562 36.444 358 34.7188C356.47 32.9935 355.314 31.0241 354.533 28.8105C353.752 26.5645 353.459 24.0417 353.654 21.2422C353.882 18.0521 354.696 15.1875 356.096 12.6484C357.495 10.1094 359.318 7.96094 361.564 6.20312C363.811 4.41276 366.333 3.07812 369.133 2.19922C371.932 1.28776 374.862 0.864583 377.922 0.929688C382.219 1.02734 385.799 2.06901 388.664 4.05469C391.561 6.00781 393.71 8.62826 395.109 11.916C396.542 15.1712 397.193 18.8333 397.062 22.9023L383.146 22.8535C383.244 21.291 383.146 19.7122 382.854 18.1172C382.593 16.5221 381.975 15.2201 380.998 14.2109C380.054 13.1693 378.605 12.6322 376.652 12.5996C374.927 12.5996 373.413 12.9902 372.111 13.7715C370.809 14.5202 369.751 15.5456 368.938 16.8477C368.124 18.1497 367.603 19.6146 367.375 21.2422C367.212 22.5117 367.342 23.651 367.766 24.6602C368.221 25.6693 368.84 26.5807 369.621 27.3945C370.435 28.1758 371.346 28.8919 372.355 29.543C373.365 30.194 374.374 30.7311 375.383 31.1543C377.824 32.3587 380.07 33.6608 382.121 35.0605C384.204 36.4277 385.962 38.0065 387.395 39.7969C388.859 41.5547 389.917 43.5892 390.568 45.9004C391.252 48.2116 391.496 50.8483 391.301 53.8105C391.04 57.0983 390.243 59.9954 388.908 62.502C387.606 65.0085 385.881 67.1406 383.732 68.8984C381.584 70.6237 379.126 71.9258 376.359 72.8047C373.592 73.6836 370.63 74.0905 367.473 74.0254C364.087 73.9277 361.06 73.293 358.391 72.1211C355.721 70.9167 353.475 69.2728 351.652 67.1895C349.862 65.0736 348.527 62.5996 347.648 59.7676C346.77 56.903 346.428 53.8268 346.623 50.5391L360.539 50.5879C360.441 52.1178 360.458 53.599 360.588 55.0312C360.718 56.4635 361.076 57.7168 361.662 58.791C362.248 59.8652 363.094 60.7279 364.201 61.3789C365.308 62.0299 366.773 62.3555 368.596 62.3555C370.321 62.3555 371.802 61.9974 373.039 61.2812C374.276 60.5326 375.269 59.5234 376.018 58.2539C376.766 56.9844 377.255 55.5358 377.482 53.9082ZM423.527 1.90625L411.223 73H397.258L409.514 1.90625H423.527ZM458.146 1.90625L429.436 37.502L412.59 55.1777L412.443 39.7969L423.82 24.7578L440.422 1.90625H458.146ZM429.68 73L420.158 39.7969L431.438 30.9102L445.451 73H429.68ZM483.537 53.9082C483.732 52.4434 483.684 51.1738 483.391 50.0996C483.13 49.0254 482.642 48.0814 481.926 47.2676C481.242 46.4212 480.396 45.6725 479.387 45.0215C478.378 44.3379 477.238 43.7031 475.969 43.1172C473.625 41.9779 471.444 40.7246 469.426 39.3574C467.408 37.9902 465.617 36.444 464.055 34.7188C462.525 32.9935 461.369 31.0241 460.588 28.8105C459.807 26.5645 459.514 24.0417 459.709 21.2422C459.937 18.0521 460.751 15.1875 462.15 12.6484C463.55 10.1094 465.373 7.96094 467.619 6.20312C469.865 4.41276 472.388 3.07812 475.188 2.19922C477.987 1.28776 480.917 0.864583 483.977 0.929688C488.273 1.02734 491.854 2.06901 494.719 4.05469C497.616 6.00781 499.764 8.62826 501.164 11.916C502.596 15.1712 503.247 18.8333 503.117 22.9023L489.201 22.8535C489.299 21.291 489.201 19.7122 488.908 18.1172C488.648 16.5221 488.029 15.2201 487.053 14.2109C486.109 13.1693 484.66 12.6322 482.707 12.5996C480.982 12.5996 479.468 12.9902 478.166 13.7715C476.864 14.5202 475.806 15.5456 474.992 16.8477C474.178 18.1497 473.658 19.6146 473.43 21.2422C473.267 22.5117 473.397 23.651 473.82 24.6602C474.276 25.6693 474.895 26.5807 475.676 27.3945C476.49 28.1758 477.401 28.8919 478.41 29.543C479.419 30.194 480.428 30.7311 481.438 31.1543C483.879 32.3587 486.125 33.6608 488.176 35.0605C490.259 36.4277 492.017 38.0065 493.449 39.7969C494.914 41.5547 495.972 43.5892 496.623 45.9004C497.307 48.2116 497.551 50.8483 497.355 53.8105C497.095 57.0983 496.298 59.9954 494.963 62.502C493.661 65.0085 491.936 67.1406 489.787 68.8984C487.639 70.6237 485.181 71.9258 482.414 72.8047C479.647 73.6836 476.685 74.0905 473.527 74.0254C470.142 73.9277 467.115 73.293 464.445 72.1211C461.776 70.9167 459.53 69.2728 457.707 67.1895C455.917 65.0736 454.582 62.5996 453.703 59.7676C452.824 56.903 452.482 53.8268 452.678 50.5391L466.594 50.5879C466.496 52.1178 466.512 53.599 466.643 55.0312C466.773 56.4635 467.131 57.7168 467.717 58.791C468.303 59.8652 469.149 60.7279 470.256 61.3789C471.363 62.0299 472.827 62.3555 474.65 62.3555C476.376 62.3555 477.857 61.9974 479.094 61.2812C480.331 60.5326 481.324 59.5234 482.072 58.2539C482.821 56.9844 483.309 55.5358 483.537 53.9082ZM542.473 61.7695L562.688 1.90625H570.061L570.891 11.916L549.553 73H541.496L542.473 61.7695ZM548.039 1.90625L547.502 63.1367L544.523 73H535.734L534.465 1.90625H548.039ZM570.988 61.623L589.104 1.90625H603.068L579.68 73H570.793L570.988 61.623ZM574.357 1.90625L576.018 63.2832L573.625 73H565.715L563.518 10.5488L566.984 1.90625H574.357ZM625.725 1.90625L613.371 73H599.455L611.809 1.90625H625.725ZM663.518 1.90625L651.164 73H637.248L649.602 1.90625H663.518ZM680.607 1.90625L678.557 13.7715H630.754L632.805 1.90625H680.607ZM721.916 30.7148L719.816 42.5312H691.447L693.498 30.7148H721.916ZM702.531 1.90625L690.227 73H676.262L688.518 1.90625H702.531ZM736.955 1.90625L724.602 73H710.783L723.137 1.90625H736.955ZM793.742 15.2852L769.084 73H753.947L787.834 1.90625H797.355L793.742 15.2852ZM795.549 73L790.666 14.1133L791.447 1.90625H800.48L809.904 73H795.549ZM800.578 46.4863L798.479 58.3516H767.229L769.328 46.4863H800.578ZM195.402 118.906L183.098 190H169.133L181.389 118.906H195.402ZM211.809 149.131L209.709 160.947H184.514L186.613 149.131H211.809ZM219.67 118.906L217.57 130.771H189.787L191.838 118.906H219.67ZM257.023 178.184L254.924 190H224.943L226.945 178.184H257.023ZM241.594 118.906L229.289 190H215.324L227.58 118.906H241.594ZM258.293 147.715L256.291 159.189H230.266L232.219 147.715H258.293ZM267.18 118.906L265.08 130.771H235.148L237.248 118.906H267.18ZM279.289 178.77L299.504 118.906H306.877L307.707 128.916L286.369 190H278.312L279.289 178.77ZM284.855 118.906L284.318 180.137L281.34 190H272.551L271.281 118.906H284.855ZM307.805 178.623L325.92 118.906H339.885L316.496 190H307.609L307.805 178.623ZM311.174 118.906L312.834 180.283L310.441 190H302.531L300.334 127.549L303.801 118.906H311.174ZM395.354 166.367L408.781 166.172C408.26 171.12 406.877 175.482 404.631 179.258C402.417 183.034 399.406 185.964 395.598 188.047C391.822 190.13 387.362 191.107 382.219 190.977C377.922 190.879 374.39 189.951 371.623 188.193C368.856 186.403 366.724 184.059 365.227 181.162C363.729 178.232 362.801 174.993 362.443 171.445C362.085 167.865 362.134 164.219 362.59 160.508L364.445 148.447C365.031 144.508 366.024 140.7 367.424 137.021C368.824 133.311 370.679 130.007 372.99 127.109C375.301 124.18 378.133 121.885 381.486 120.225C384.872 118.564 388.778 117.783 393.205 117.881C398.316 117.979 402.352 119.167 405.314 121.445C408.309 123.691 410.458 126.702 411.76 130.479C413.062 134.255 413.729 138.438 413.762 143.027L399.797 142.979C399.927 140.765 399.895 138.665 399.699 136.68C399.504 134.661 398.853 133.018 397.746 131.748C396.672 130.446 394.8 129.746 392.131 129.648C389.527 129.551 387.378 130.072 385.686 131.211C384.025 132.35 382.691 133.864 381.682 135.752C380.705 137.64 379.956 139.691 379.436 141.904C378.947 144.118 378.557 146.266 378.264 148.35L376.555 160.557C376.327 162.249 376.115 164.137 375.92 166.221C375.757 168.304 375.806 170.322 376.066 172.275C376.327 174.229 376.994 175.856 378.068 177.158C379.143 178.46 380.884 179.176 383.293 179.307C386.125 179.404 388.339 178.883 389.934 177.744C391.529 176.605 392.717 175.042 393.498 173.057C394.312 171.038 394.93 168.809 395.354 166.367ZM454.289 178.184L452.189 190H423.479L425.529 178.184H454.289ZM440.129 118.906L427.824 190H413.859L426.115 118.906H440.129ZM487.15 118.906L474.797 190H460.881L473.234 118.906H487.15ZM523.283 166.367L536.711 166.172C536.19 171.12 534.807 175.482 532.561 179.258C530.347 183.034 527.336 185.964 523.527 188.047C519.751 190.13 515.292 191.107 510.148 190.977C505.852 190.879 502.32 189.951 499.553 188.193C496.786 186.403 494.654 184.059 493.156 181.162C491.659 178.232 490.731 174.993 490.373 171.445C490.015 167.865 490.064 164.219 490.52 160.508L492.375 148.447C492.961 144.508 493.954 140.7 495.354 137.021C496.753 133.311 498.609 130.007 500.92 127.109C503.231 124.18 506.063 121.885 509.416 120.225C512.801 118.564 516.708 117.783 521.135 117.881C526.245 117.979 530.282 119.167 533.244 121.445C536.239 123.691 538.387 126.702 539.689 130.479C540.992 134.255 541.659 138.438 541.691 143.027L527.727 142.979C527.857 140.765 527.824 138.665 527.629 136.68C527.434 134.661 526.783 133.018 525.676 131.748C524.602 130.446 522.73 129.746 520.061 129.648C517.456 129.551 515.308 130.072 513.615 131.211C511.955 132.35 510.62 133.864 509.611 135.752C508.635 137.64 507.886 139.691 507.365 141.904C506.877 144.118 506.486 146.266 506.193 148.35L504.484 160.557C504.257 162.249 504.045 164.137 503.85 166.221C503.687 168.304 503.736 170.322 503.996 172.275C504.257 174.229 504.924 175.856 505.998 177.158C507.072 178.46 508.814 179.176 511.223 179.307C514.055 179.404 516.268 178.883 517.863 177.744C519.458 176.605 520.646 175.042 521.428 173.057C522.242 171.038 522.86 168.809 523.283 166.367ZM568.059 118.906L555.754 190H541.789L554.045 118.906H568.059ZM602.678 118.906L573.967 154.502L557.121 172.178L556.975 156.797L568.352 141.758L584.953 118.906H602.678ZM574.211 190L564.689 156.797L575.969 147.91L589.982 190H574.211ZM628.068 170.908C628.264 169.443 628.215 168.174 627.922 167.1C627.661 166.025 627.173 165.081 626.457 164.268C625.773 163.421 624.927 162.673 623.918 162.021C622.909 161.338 621.77 160.703 620.5 160.117C618.156 158.978 615.975 157.725 613.957 156.357C611.939 154.99 610.148 153.444 608.586 151.719C607.056 149.993 605.9 148.024 605.119 145.811C604.338 143.564 604.045 141.042 604.24 138.242C604.468 135.052 605.282 132.188 606.682 129.648C608.081 127.109 609.904 124.961 612.15 123.203C614.396 121.413 616.919 120.078 619.719 119.199C622.518 118.288 625.448 117.865 628.508 117.93C632.805 118.027 636.385 119.069 639.25 121.055C642.147 123.008 644.296 125.628 645.695 128.916C647.128 132.171 647.779 135.833 647.648 139.902L633.732 139.854C633.83 138.291 633.732 136.712 633.439 135.117C633.179 133.522 632.561 132.22 631.584 131.211C630.64 130.169 629.191 129.632 627.238 129.6C625.513 129.6 623.999 129.99 622.697 130.771C621.395 131.52 620.337 132.546 619.523 133.848C618.71 135.15 618.189 136.615 617.961 138.242C617.798 139.512 617.928 140.651 618.352 141.66C618.807 142.669 619.426 143.581 620.207 144.395C621.021 145.176 621.932 145.892 622.941 146.543C623.951 147.194 624.96 147.731 625.969 148.154C628.41 149.359 630.656 150.661 632.707 152.061C634.79 153.428 636.548 155.007 637.98 156.797C639.445 158.555 640.503 160.589 641.154 162.9C641.838 165.212 642.082 167.848 641.887 170.811C641.626 174.098 640.829 176.995 639.494 179.502C638.192 182.008 636.467 184.141 634.318 185.898C632.17 187.624 629.712 188.926 626.945 189.805C624.178 190.684 621.216 191.09 618.059 191.025C614.673 190.928 611.646 190.293 608.977 189.121C606.307 187.917 604.061 186.273 602.238 184.189C600.448 182.074 599.113 179.6 598.234 176.768C597.355 173.903 597.014 170.827 597.209 167.539L611.125 167.588C611.027 169.118 611.044 170.599 611.174 172.031C611.304 173.464 611.662 174.717 612.248 175.791C612.834 176.865 613.68 177.728 614.787 178.379C615.894 179.03 617.359 179.355 619.182 179.355C620.907 179.355 622.388 178.997 623.625 178.281C624.862 177.533 625.855 176.523 626.604 175.254C627.352 173.984 627.84 172.536 628.068 170.908Z" fill="#3B82F6"/>
</svg>
